<?xml version="1.0" encoding="UTF-8" standalone="no"?>
<!DOCTYPE svg PUBLIC "-//W3C//DTD SVG 1.1//EN"
 "http://www.w3.org/Graphics/SVG/1.1/DTD/svg11.dtd">
<!-- Generated by graphviz version 2.47.0 (20210316.0004)
 -->
<!-- Title: dependencies Pages: 1 -->
<svg width="1292pt" height="287pt"
 viewBox="0.00 0.00 1292.00 287.00" xmlns="http://www.w3.org/2000/svg" xmlns:xlink="http://www.w3.org/1999/xlink">
<g id="graph0" class="graph" transform="scale(1 1) rotate(0) translate(4 283)">
<title>dependencies</title>
<polygon fill="white" stroke="transparent" points="-4,4 -4,-283 1288,-283 1288,4 -4,4"/>
<text text-anchor="start" x="621.01" y="-42.4" font-family="Times-12" font-weight="bold" font-size="14.00">Legend</text>
<polygon fill="#ffffb3" stroke="transparent" points="408,-10 408,-30 428,-30 428,-10 408,-10"/>
<text text-anchor="start" x="431.63" y="-15.4" font-family="Times-12" font-size="14.00"> &#160;Declarations</text>
<polygon fill="#8dd3c7" stroke="transparent" points="521,-10 521,-30 541,-30 541,-10 521,-10"/>
<text text-anchor="start" x="544.73" y="-15.4" font-family="Times-12" font-size="14.00"> &#160;Module</text>
<polygon fill="#80b1d3" stroke="transparent" points="607,-10 607,-30 627,-30 627,-10 607,-10"/>
<text text-anchor="start" x="630.78" y="-15.4" font-family="Times-12" font-size="14.00"> &#160;Bootstrap</text>
<polygon fill="#fdb462" stroke="transparent" points="704,-10 704,-30 724,-30 724,-10 704,-10"/>
<text text-anchor="start" x="727.67" y="-15.4" font-family="Times-12" font-size="14.00"> &#160;Providers</text>
<polygon fill="#fb8072" stroke="transparent" points="800,-10 800,-30 820,-30 820,-10 800,-10"/>
<text text-anchor="start" x="823.73" y="-15.4" font-family="Times-12" font-size="14.00"> &#160;Exports</text>
<g id="clust1" class="cluster">
<title>cluster_AppModule</title>
<polygon fill="none" stroke="black" stroke-dasharray="1,5" points="68,-146 68,-271 1079,-271 1079,-146 68,-146"/>
</g>
<g id="clust3" class="cluster">
<title>cluster_AppModule_imports</title>
<polygon fill="none" stroke="black" points="214,-154 214,-206 1071,-206 1071,-154 214,-154"/>
</g>
<g id="clust6" class="cluster">
<title>cluster_AppModule_providers</title>
<polygon fill="none" stroke="black" points="76,-154 76,-206 206,-206 206,-154 76,-154"/>
</g>
<g id="clust7" class="cluster">
<title>cluster_AuthModule</title>
<polygon fill="none" stroke="black" stroke-dasharray="1,5" points="8,-70 8,-138 158,-138 158,-70 8,-70"/>
</g>
<g id="clust12" class="cluster">
<title>cluster_AuthModule_providers</title>
<polygon fill="none" stroke="black" points="16,-78 16,-130 150,-130 150,-78 16,-78"/>
</g>
<g id="clust13" class="cluster">
<title>cluster_CustomersModule</title>
<polygon fill="none" stroke="black" stroke-dasharray="1,5" points="166,-70 166,-138 360,-138 360,-70 166,-70"/>
</g>
<g id="clust18" class="cluster">
<title>cluster_CustomersModule_providers</title>
<polygon fill="none" stroke="black" points="174,-78 174,-130 352,-130 352,-78 174,-78"/>
</g>
<g id="clust19" class="cluster">
<title>cluster_InventoryModule</title>
<polygon fill="none" stroke="black" stroke-dasharray="1,5" points="368,-70 368,-138 556,-138 556,-70 368,-70"/>
</g>
<g id="clust24" class="cluster">
<title>cluster_InventoryModule_providers</title>
<polygon fill="none" stroke="black" points="376,-78 376,-130 548,-130 548,-78 376,-78"/>
</g>
<g id="clust25" class="cluster">
<title>cluster_OrdersModule</title>
<polygon fill="none" stroke="black" stroke-dasharray="1,5" points="564,-70 564,-138 728,-138 728,-70 564,-70"/>
</g>
<g id="clust30" class="cluster">
<title>cluster_OrdersModule_providers</title>
<polygon fill="none" stroke="black" points="572,-78 572,-130 720,-130 720,-78 572,-78"/>
</g>
<g id="clust31" class="cluster">
<title>cluster_PaymentsModule</title>
<polygon fill="none" stroke="black" stroke-dasharray="1,5" points="736,-70 736,-138 924,-138 924,-70 736,-70"/>
</g>
<g id="clust36" class="cluster">
<title>cluster_PaymentsModule_providers</title>
<polygon fill="none" stroke="black" points="744,-78 744,-130 916,-130 916,-78 744,-78"/>
</g>
<g id="clust37" class="cluster">
<title>cluster_ProductsModule</title>
<polygon fill="none" stroke="black" stroke-dasharray="1,5" points="932,-70 932,-138 1112,-138 1112,-70 932,-70"/>
</g>
<g id="clust42" class="cluster">
<title>cluster_ProductsModule_providers</title>
<polygon fill="none" stroke="black" points="940,-78 940,-130 1104,-130 1104,-78 940,-78"/>
</g>
<g id="clust43" class="cluster">
<title>cluster_UsersModule</title>
<polygon fill="none" stroke="black" stroke-dasharray="1,5" points="1120,-70 1120,-138 1276,-138 1276,-70 1120,-70"/>
</g>
<g id="clust48" class="cluster">
<title>cluster_UsersModule_providers</title>
<polygon fill="none" stroke="black" points="1128,-78 1128,-130 1268,-130 1268,-78 1128,-78"/>
</g>
<!-- AuthModule -->
<g id="node1" class="node">
<title>AuthModule</title>
<polygon fill="#8dd3c7" stroke="black" points="309.55,-198 306.55,-202 285.55,-202 282.55,-198 222.45,-198 222.45,-162 309.55,-162 309.55,-198"/>
<text text-anchor="middle" x="266" y="-175.8" font-family="Times,serif" font-size="14.00">AuthModule</text>
</g>
<!-- AppModule -->
<g id="node8" class="node">
<title>AppModule</title>
<polygon fill="#8dd3c7" stroke="black" points="625.66,-263 622.66,-267 601.66,-267 598.66,-263 542.34,-263 542.34,-227 625.66,-227 625.66,-263"/>
<text text-anchor="middle" x="584" y="-240.8" font-family="Times,serif" font-size="14.00">AppModule</text>
</g>
<!-- AuthModule&#45;&gt;AppModule -->
<g id="edge1" class="edge">
<title>AuthModule&#45;&gt;AppModule</title>
<path fill="none" stroke="black" d="M266,-198.11C266,-217.34 266,-245 266,-245 266,-245 532.1,-245 532.1,-245"/>
<polygon fill="black" stroke="black" points="532.1,-248.5 542.1,-245 532.1,-241.5 532.1,-248.5"/>
</g>
<!-- CustomersModule -->
<g id="node2" class="node">
<title>CustomersModule</title>
<polygon fill="#8dd3c7" stroke="black" points="446.93,-198 443.93,-202 422.93,-202 419.93,-198 327.07,-198 327.07,-162 446.93,-162 446.93,-198"/>
<text text-anchor="middle" x="387" y="-175.8" font-family="Times,serif" font-size="14.00">CustomersModule</text>
</g>
<!-- CustomersModule&#45;&gt;AppModule -->
<g id="edge2" class="edge">
<title>CustomersModule&#45;&gt;AppModule</title>
<path fill="none" stroke="black" d="M387,-198.03C387,-214.4 387,-236 387,-236 387,-236 532.22,-236 532.22,-236"/>
<polygon fill="black" stroke="black" points="532.22,-239.5 542.22,-236 532.22,-232.5 532.22,-239.5"/>
</g>
<!-- InventoryModule -->
<g id="node3" class="node">
<title>InventoryModule</title>
<polygon fill="#8dd3c7" stroke="black" points="578.98,-198 575.98,-202 554.98,-202 551.98,-198 465.02,-198 465.02,-162 578.98,-162 578.98,-198"/>
<text text-anchor="middle" x="522" y="-175.8" font-family="Times,serif" font-size="14.00">InventoryModule</text>
</g>
<!-- InventoryModule&#45;&gt;AppModule -->
<g id="edge3" class="edge">
<title>InventoryModule&#45;&gt;AppModule</title>
<path fill="none" stroke="black" d="M560.58,-198.11C560.58,-198.11 560.58,-216.99 560.58,-216.99"/>
<polygon fill="black" stroke="black" points="557.08,-216.99 560.58,-226.99 564.08,-216.99 557.08,-216.99"/>
</g>
<!-- OrdersModule -->
<g id="node4" class="node">
<title>OrdersModule</title>
<polygon fill="#8dd3c7" stroke="black" points="694.64,-198 691.64,-202 670.64,-202 667.64,-198 597.36,-198 597.36,-162 694.64,-162 694.64,-198"/>
<text text-anchor="middle" x="646" y="-175.8" font-family="Times,serif" font-size="14.00">OrdersModule</text>
</g>
<!-- OrdersModule&#45;&gt;AppModule -->
<g id="edge4" class="edge">
<title>OrdersModule&#45;&gt;AppModule</title>
<path fill="none" stroke="black" d="M611.5,-198.11C611.5,-198.11 611.5,-216.99 611.5,-216.99"/>
<polygon fill="black" stroke="black" points="608,-216.99 611.5,-226.99 615,-216.99 608,-216.99"/>
</g>
<!-- PaymentsModule -->
<g id="node5" class="node">
<title>PaymentsModule</title>
<polygon fill="#8dd3c7" stroke="black" points="826.99,-198 823.99,-202 802.99,-202 799.99,-198 713.01,-198 713.01,-162 826.99,-162 826.99,-198"/>
<text text-anchor="middle" x="770" y="-175.8" font-family="Times,serif" font-size="14.00">PaymentsModule</text>
</g>
<!-- PaymentsModule&#45;&gt;AppModule -->
<g id="edge5" class="edge">
<title>PaymentsModule&#45;&gt;AppModule</title>
<path fill="none" stroke="black" d="M770,-198.03C770,-214.4 770,-236 770,-236 770,-236 635.74,-236 635.74,-236"/>
<polygon fill="black" stroke="black" points="635.74,-232.5 625.74,-236 635.74,-239.5 635.74,-232.5"/>
</g>
<!-- ProductsModule -->
<g id="node6" class="node">
<title>ProductsModule</title>
<polygon fill="#8dd3c7" stroke="black" points="953.04,-198 950.04,-202 929.04,-202 926.04,-198 844.96,-198 844.96,-162 953.04,-162 953.04,-198"/>
<text text-anchor="middle" x="899" y="-175.8" font-family="Times,serif" font-size="14.00">ProductsModule</text>
</g>
<!-- ProductsModule&#45;&gt;AppModule -->
<g id="edge6" class="edge">
<title>ProductsModule&#45;&gt;AppModule</title>
<path fill="none" stroke="black" d="M899,-198.11C899,-217.34 899,-245 899,-245 899,-245 635.83,-245 635.83,-245"/>
<polygon fill="black" stroke="black" points="635.83,-241.5 625.83,-245 635.83,-248.5 635.83,-241.5"/>
</g>
<!-- UsersModule -->
<g id="node7" class="node">
<title>UsersModule</title>
<polygon fill="#8dd3c7" stroke="black" points="1062.92,-198 1059.92,-202 1038.92,-202 1035.92,-198 971.08,-198 971.08,-162 1062.92,-162 1062.92,-198"/>
<text text-anchor="middle" x="1017" y="-175.8" font-family="Times,serif" font-size="14.00">UsersModule</text>
</g>
<!-- UsersModule&#45;&gt;AppModule -->
<g id="edge7" class="edge">
<title>UsersModule&#45;&gt;AppModule</title>
<path fill="none" stroke="black" d="M1017,-198.29C1017,-220.21 1017,-254 1017,-254 1017,-254 635.91,-254 635.91,-254"/>
<polygon fill="black" stroke="black" points="635.91,-250.5 625.91,-254 635.91,-257.5 635.91,-250.5"/>
</g>
<!-- AppService -->
<g id="node9" class="node">
<title>AppService</title>
<ellipse fill="#fdb462" stroke="black" cx="141" cy="-180" rx="56.74" ry="18"/>
<text text-anchor="middle" x="141" y="-175.8" font-family="Times,serif" font-size="14.00">AppService</text>
</g>
<!-- AppService&#45;&gt;AppModule -->
<g id="edge8" class="edge">
<title>AppService&#45;&gt;AppModule</title>
<path fill="none" stroke="black" d="M141,-198.29C141,-220.21 141,-254 141,-254 141,-254 532.32,-254 532.32,-254"/>
<polygon fill="black" stroke="black" points="532.32,-257.5 542.32,-254 532.32,-250.5 532.32,-257.5"/>
</g>
<!-- AuthService -->
<g id="node10" class="node">
<title>AuthService</title>
<ellipse fill="#fdb462" stroke="black" cx="83" cy="-104" rx="59.11" ry="18"/>
<text text-anchor="middle" x="83" y="-99.8" font-family="Times,serif" font-size="14.00">AuthService</text>
</g>
<!-- AuthService&#45;&gt;AuthModule -->
<g id="edge9" class="edge">
<title>AuthService&#45;&gt;AuthModule</title>
<path fill="none" stroke="black" d="M113.34,-119.9C113.34,-130.31 113.34,-142 113.34,-142 113.34,-142 266,-142 266,-142 266,-142 266,-151.89 266,-151.89"/>
<polygon fill="black" stroke="black" points="262.5,-151.89 266,-161.89 269.5,-151.89 262.5,-151.89"/>
</g>
<!-- CustomersService -->
<g id="node11" class="node">
<title>CustomersService</title>
<ellipse fill="#fdb462" stroke="black" cx="263" cy="-104" rx="81.1" ry="18"/>
<text text-anchor="middle" x="263" y="-99.8" font-family="Times,serif" font-size="14.00">CustomersService</text>
</g>
<!-- CustomersService&#45;&gt;CustomersModule -->
<g id="edge10" class="edge">
<title>CustomersService&#45;&gt;CustomersModule</title>
<path fill="none" stroke="black" d="M335.79,-112.13C335.79,-112.13 335.79,-151.88 335.79,-151.88"/>
<polygon fill="black" stroke="black" points="332.29,-151.88 335.79,-161.88 339.29,-151.88 332.29,-151.88"/>
</g>
<!-- InventoryService -->
<g id="node12" class="node">
<title>InventoryService</title>
<ellipse fill="#fdb462" stroke="black" cx="462" cy="-104" rx="77.57" ry="18"/>
<text text-anchor="middle" x="462" y="-99.8" font-family="Times,serif" font-size="14.00">InventoryService</text>
</g>
<!-- InventoryService&#45;&gt;InventoryModule -->
<g id="edge11" class="edge">
<title>InventoryService&#45;&gt;InventoryModule</title>
<path fill="none" stroke="black" d="M502.27,-119.75C502.27,-119.75 502.27,-151.87 502.27,-151.87"/>
<polygon fill="black" stroke="black" points="498.77,-151.87 502.27,-161.87 505.77,-151.87 498.77,-151.87"/>
</g>
<!-- OrdersService -->
<g id="node13" class="node">
<title>OrdersService</title>
<ellipse fill="#fdb462" stroke="black" cx="646" cy="-104" rx="66.03" ry="18"/>
<text text-anchor="middle" x="646" y="-99.8" font-family="Times,serif" font-size="14.00">OrdersService</text>
</g>
<!-- OrdersService&#45;&gt;OrdersModule -->
<g id="edge12" class="edge">
<title>OrdersService&#45;&gt;OrdersModule</title>
<path fill="none" stroke="black" d="M646,-122.01C646,-122.01 646,-151.85 646,-151.85"/>
<polygon fill="black" stroke="black" points="642.5,-151.85 646,-161.85 649.5,-151.85 642.5,-151.85"/>
</g>
<!-- PaymentsService -->
<g id="node14" class="node">
<title>PaymentsService</title>
<ellipse fill="#fdb462" stroke="black" cx="830" cy="-104" rx="77.58" ry="18"/>
<text text-anchor="middle" x="830" y="-99.8" font-family="Times,serif" font-size="14.00">PaymentsService</text>
</g>
<!-- PaymentsService&#45;&gt;PaymentsModule -->
<g id="edge13" class="edge">
<title>PaymentsService&#45;&gt;PaymentsModule</title>
<path fill="none" stroke="black" d="M789.73,-119.75C789.73,-119.75 789.73,-151.87 789.73,-151.87"/>
<polygon fill="black" stroke="black" points="786.23,-151.87 789.73,-161.87 793.23,-151.87 786.23,-151.87"/>
</g>
<!-- ProductsService -->
<g id="node15" class="node">
<title>ProductsService</title>
<ellipse fill="#fdb462" stroke="black" cx="1022" cy="-104" rx="73.57" ry="18"/>
<text text-anchor="middle" x="1022" y="-99.8" font-family="Times,serif" font-size="14.00">ProductsService</text>
</g>
<!-- ProductsService&#45;&gt;ProductsModule -->
<g id="edge14" class="edge">
<title>ProductsService&#45;&gt;ProductsModule</title>
<path fill="none" stroke="black" d="M962.28,-114.89C962.28,-135.9 962.28,-180 962.28,-180 962.28,-180 961.37,-180 961.37,-180"/>
<polygon fill="black" stroke="black" points="963.21,-176.5 953.21,-180 963.21,-183.5 963.21,-176.5"/>
</g>
<!-- UsersService -->
<g id="node16" class="node">
<title>UsersService</title>
<ellipse fill="#fdb462" stroke="black" cx="1198" cy="-104" rx="61.95" ry="18"/>
<text text-anchor="middle" x="1198" y="-99.8" font-family="Times,serif" font-size="14.00">UsersService</text>
</g>
<!-- UsersService&#45;&gt;UsersModule -->
<g id="edge15" class="edge">
<title>UsersService&#45;&gt;UsersModule</title>
<path fill="none" stroke="black" d="M1198,-122.01C1198,-144.49 1198,-180 1198,-180 1198,-180 1073.14,-180 1073.14,-180"/>
<polygon fill="black" stroke="black" points="1073.14,-176.5 1063.14,-180 1073.14,-183.5 1073.14,-176.5"/>
</g>
</g>
</svg>
