<?xml version="1.0" encoding="UTF-8" standalone="no"?>
<!DOCTYPE svg PUBLIC "-//W3C//DTD SVG 1.1//EN"
 "http://www.w3.org/Graphics/SVG/1.1/DTD/svg11.dtd">
<!-- Generated by graphviz version 2.47.0 (20210316.0004)
 -->
<!-- Title: dependencies Pages: 1 -->
<svg width="1035pt" height="211pt"
 viewBox="0.00 0.00 1035.00 211.00" xmlns="http://www.w3.org/2000/svg" xmlns:xlink="http://www.w3.org/1999/xlink">
<g id="graph0" class="graph" transform="scale(1 1) rotate(0) translate(4 207)">
<title>dependencies</title>
<polygon fill="white" stroke="transparent" points="-4,4 -4,-207 1031,-207 1031,4 -4,4"/>
<text text-anchor="start" x="492.51" y="-42.4" font-family="Times-12" font-weight="bold" font-size="14.00">Legend</text>
<polygon fill="#ffffb3" stroke="transparent" points="279.5,-10 279.5,-30 299.5,-30 299.5,-10 279.5,-10"/>
<text text-anchor="start" x="303.13" y="-15.4" font-family="Times-12" font-size="14.00"> &#160;Declarations</text>
<polygon fill="#8dd3c7" stroke="transparent" points="392.5,-10 392.5,-30 412.5,-30 412.5,-10 392.5,-10"/>
<text text-anchor="start" x="416.23" y="-15.4" font-family="Times-12" font-size="14.00"> &#160;Module</text>
<polygon fill="#80b1d3" stroke="transparent" points="478.5,-10 478.5,-30 498.5,-30 498.5,-10 478.5,-10"/>
<text text-anchor="start" x="502.28" y="-15.4" font-family="Times-12" font-size="14.00"> &#160;Bootstrap</text>
<polygon fill="#fdb462" stroke="transparent" points="575.5,-10 575.5,-30 595.5,-30 595.5,-10 575.5,-10"/>
<text text-anchor="start" x="599.17" y="-15.4" font-family="Times-12" font-size="14.00"> &#160;Providers</text>
<polygon fill="#fb8072" stroke="transparent" points="671.5,-10 671.5,-30 691.5,-30 691.5,-10 671.5,-10"/>
<text text-anchor="start" x="695.23" y="-15.4" font-family="Times-12" font-size="14.00"> &#160;Exports</text>
<g id="clust1" class="cluster">
<title>cluster_AppModule</title>
<polygon fill="none" stroke="black" stroke-dasharray="1,5" points="8,-70 8,-195 1019,-195 1019,-70 8,-70"/>
</g>
<g id="clust3" class="cluster">
<title>cluster_AppModule_imports</title>
<polygon fill="none" stroke="black" points="154,-78 154,-130 1011,-130 1011,-78 154,-78"/>
</g>
<g id="clust6" class="cluster">
<title>cluster_AppModule_providers</title>
<polygon fill="none" stroke="black" points="16,-78 16,-130 146,-130 146,-78 16,-78"/>
</g>
<!-- AuthModule -->
<g id="node1" class="node">
<title>AuthModule</title>
<polygon fill="#8dd3c7" stroke="black" points="1002.55,-122 999.55,-126 978.55,-126 975.55,-122 915.45,-122 915.45,-86 1002.55,-86 1002.55,-122"/>
<text text-anchor="middle" x="959" y="-99.8" font-family="Times,serif" font-size="14.00">AuthModule</text>
</g>
<!-- AppModule -->
<g id="node8" class="node">
<title>AppModule</title>
<polygon fill="#8dd3c7" stroke="black" points="558.66,-187 555.66,-191 534.66,-191 531.66,-187 475.34,-187 475.34,-151 558.66,-151 558.66,-187"/>
<text text-anchor="middle" x="517" y="-164.8" font-family="Times,serif" font-size="14.00">AppModule</text>
</g>
<!-- AuthModule&#45;&gt;AppModule -->
<g id="edge1" class="edge">
<title>AuthModule&#45;&gt;AppModule</title>
<path fill="none" stroke="black" d="M959,-122.29C959,-144.21 959,-178 959,-178 959,-178 568.98,-178 568.98,-178"/>
<polygon fill="black" stroke="black" points="568.98,-174.5 558.98,-178 568.98,-181.5 568.98,-174.5"/>
</g>
<!-- CustomersModule -->
<g id="node2" class="node">
<title>CustomersModule</title>
<polygon fill="#8dd3c7" stroke="black" points="897.93,-122 894.93,-126 873.93,-126 870.93,-122 778.07,-122 778.07,-86 897.93,-86 897.93,-122"/>
<text text-anchor="middle" x="838" y="-99.8" font-family="Times,serif" font-size="14.00">CustomersModule</text>
</g>
<!-- CustomersModule&#45;&gt;AppModule -->
<g id="edge2" class="edge">
<title>CustomersModule&#45;&gt;AppModule</title>
<path fill="none" stroke="black" d="M838,-122.11C838,-141.34 838,-169 838,-169 838,-169 568.97,-169 568.97,-169"/>
<polygon fill="black" stroke="black" points="568.97,-165.5 558.97,-169 568.97,-172.5 568.97,-165.5"/>
</g>
<!-- InventoryModule -->
<g id="node3" class="node">
<title>InventoryModule</title>
<polygon fill="#8dd3c7" stroke="black" points="759.98,-122 756.98,-126 735.98,-126 732.98,-122 646.02,-122 646.02,-86 759.98,-86 759.98,-122"/>
<text text-anchor="middle" x="703" y="-99.8" font-family="Times,serif" font-size="14.00">InventoryModule</text>
</g>
<!-- InventoryModule&#45;&gt;AppModule -->
<g id="edge3" class="edge">
<title>InventoryModule&#45;&gt;AppModule</title>
<path fill="none" stroke="black" d="M703,-122.03C703,-138.4 703,-160 703,-160 703,-160 568.74,-160 568.74,-160"/>
<polygon fill="black" stroke="black" points="568.74,-156.5 558.74,-160 568.74,-163.5 568.74,-156.5"/>
</g>
<!-- OrdersModule -->
<g id="node4" class="node">
<title>OrdersModule</title>
<polygon fill="#8dd3c7" stroke="black" points="627.64,-122 624.64,-126 603.64,-126 600.64,-122 530.36,-122 530.36,-86 627.64,-86 627.64,-122"/>
<text text-anchor="middle" x="579" y="-99.8" font-family="Times,serif" font-size="14.00">OrdersModule</text>
</g>
<!-- OrdersModule&#45;&gt;AppModule -->
<g id="edge4" class="edge">
<title>OrdersModule&#45;&gt;AppModule</title>
<path fill="none" stroke="black" d="M544.5,-122.11C544.5,-122.11 544.5,-140.99 544.5,-140.99"/>
<polygon fill="black" stroke="black" points="541,-140.99 544.5,-150.99 548,-140.99 541,-140.99"/>
</g>
<!-- PaymentsModule -->
<g id="node5" class="node">
<title>PaymentsModule</title>
<polygon fill="#8dd3c7" stroke="black" points="511.99,-122 508.99,-126 487.99,-126 484.99,-122 398.01,-122 398.01,-86 511.99,-86 511.99,-122"/>
<text text-anchor="middle" x="455" y="-99.8" font-family="Times,serif" font-size="14.00">PaymentsModule</text>
</g>
<!-- PaymentsModule&#45;&gt;AppModule -->
<g id="edge5" class="edge">
<title>PaymentsModule&#45;&gt;AppModule</title>
<path fill="none" stroke="black" d="M493.58,-122.11C493.58,-122.11 493.58,-140.99 493.58,-140.99"/>
<polygon fill="black" stroke="black" points="490.08,-140.99 493.58,-150.99 497.08,-140.99 490.08,-140.99"/>
</g>
<!-- ProductsModule -->
<g id="node6" class="node">
<title>ProductsModule</title>
<polygon fill="#8dd3c7" stroke="black" points="380.04,-122 377.04,-126 356.04,-126 353.04,-122 271.96,-122 271.96,-86 380.04,-86 380.04,-122"/>
<text text-anchor="middle" x="326" y="-99.8" font-family="Times,serif" font-size="14.00">ProductsModule</text>
</g>
<!-- ProductsModule&#45;&gt;AppModule -->
<g id="edge6" class="edge">
<title>ProductsModule&#45;&gt;AppModule</title>
<path fill="none" stroke="black" d="M326,-122.03C326,-138.4 326,-160 326,-160 326,-160 465.08,-160 465.08,-160"/>
<polygon fill="black" stroke="black" points="465.08,-163.5 475.08,-160 465.08,-156.5 465.08,-163.5"/>
</g>
<!-- UsersModule -->
<g id="node7" class="node">
<title>UsersModule</title>
<polygon fill="#8dd3c7" stroke="black" points="253.92,-122 250.92,-126 229.92,-126 226.92,-122 162.08,-122 162.08,-86 253.92,-86 253.92,-122"/>
<text text-anchor="middle" x="208" y="-99.8" font-family="Times,serif" font-size="14.00">UsersModule</text>
</g>
<!-- UsersModule&#45;&gt;AppModule -->
<g id="edge7" class="edge">
<title>UsersModule&#45;&gt;AppModule</title>
<path fill="none" stroke="black" d="M208,-122.11C208,-141.34 208,-169 208,-169 208,-169 465.33,-169 465.33,-169"/>
<polygon fill="black" stroke="black" points="465.33,-172.5 475.33,-169 465.33,-165.5 465.33,-172.5"/>
</g>
<!-- AppService -->
<g id="node9" class="node">
<title>AppService</title>
<ellipse fill="#fdb462" stroke="black" cx="81" cy="-104" rx="56.74" ry="18"/>
<text text-anchor="middle" x="81" y="-99.8" font-family="Times,serif" font-size="14.00">AppService</text>
</g>
<!-- AppService&#45;&gt;AppModule -->
<g id="edge8" class="edge">
<title>AppService&#45;&gt;AppModule</title>
<path fill="none" stroke="black" d="M81,-122.29C81,-144.21 81,-178 81,-178 81,-178 465.19,-178 465.19,-178"/>
<polygon fill="black" stroke="black" points="465.19,-181.5 475.19,-178 465.19,-174.5 465.19,-181.5"/>
</g>
</g>
</svg>
